# xmcd CD database file
#
# Track frame offsets:
#	182
#	25662
#	50625
#
# Disc length: 1069 seconds
#
# Revision: 3
# Processed by: cddbd v1.5.1PL0 Copyright (c) Steve Scherf et al.
# Submitted via: CDex 1.51
#
DISCID=1d042b03
DTITLE=Das Modul - kleine Maus (remixes)
DYEAR=1900
DGENRE=Rave
TTITLE0=Kleine Maus (Bizarre´s RAve Mix)
TTITLE1=Kleine Maus (Neonrave Mix)
TTITLE2=Kleine Maus (C.O.R. Remix
EXTD=
EXTT0=
EXTT1=
EXTT2=
PLAYORDER=
